<?xml version="1.0" standalone="no"?>
<!DOCTYPE svg PUBLIC "-//W3C//DTD SVG 20010904//EN"
 "http://www.w3.org/TR/2001/REC-SVG-20010904/DTD/svg10.dtd">
<svg version="1.0" xmlns="http://www.w3.org/2000/svg"
 width="425.000000pt" height="379.000000pt" viewBox="0 0 425.000000 379.000000"
 preserveAspectRatio="xMidYMid meet">
<metadata>
Created by potrace 1.16, written by Peter Selinger 2001-2019
</metadata>
<g transform="translate(0.000000,379.000000) scale(0.100000,-0.100000)"
fill="#ffff" stroke="none">
<path d="M630 3650 l0 -60 307 -2 307 -3 209 -320 c114 -176 271 -417 349
-535 165 -253 156 -239 847 -1300 l537 -825 202 -3 202 -2 2 546 3 547 74
-114 c41 -63 135 -207 209 -321 l135 -208 74 0 c57 0 72 3 67 13 -11 17 -293
450 -442 679 l-122 186 0 611 0 611 -471 0 -471 0 23 -37 c13 -21 69 -108 124
-193 56 -85 162 -247 235 -360 140 -216 258 -396 372 -569 l68 -105 0 -583 0
-584 -106 3 -107 3 -404 620 c-222 341 -441 676 -485 745 -45 69 -190 292
-323 495 -133 204 -346 532 -475 730 -128 198 -240 368 -248 378 -14 16 -43
17 -354 17 l-338 0 0 -60z m2840 -1072 c0 -389 -2 -450 -14 -438 -17 18 -576
876 -576 884 0 3 133 6 295 6 l295 0 0 -452z"/>
<path d="M630 2609 c0 -328 -4 -539 -9 -537 -9 3 -118 166 -316 472 l-100 155
-72 1 c-40 0 -73 -2 -73 -4 0 -2 128 -201 285 -441 l285 -436 0 -610 0 -609
471 0 c371 0 469 3 463 12 -5 7 -30 47 -57 88 -28 41 -75 113 -105 160 -106
162 -160 246 -304 465 -79 121 -161 247 -181 280 -21 33 -67 105 -103 159
l-64 99 0 584 0 584 107 -3 108 -3 423 -650 c232 -357 458 -704 501 -770 157
-239 888 -1362 936 -1437 l50 -78 358 0 357 0 0 60 0 60 -322 2 -322 3 -71
106 c-38 58 -176 269 -305 468 -129 199 -303 466 -387 594 -244 374 -374 572
-474 727 -273 420 -398 611 -531 815 l-147 225 -201 0 -200 0 0 -541z m247
-1169 c156 -242 221 -341 346 -533 65 -98 117 -180 117 -182 0 -3 -133 -5
-295 -5 l-295 0 0 452 c0 377 2 450 13 438 8 -8 59 -85 114 -170z"/>
</g>
</svg>
